<?xml version="1.0" standalone="no"?><svg xmlns="http://www.w3.org/2000/svg" viewBox="0 0 1440 320"><path fill="#f3f4f5" fill-opacity="1" d="M0,256L17.1,250.7C34.3,245,69,235,103,240C137.1,245,171,267,206,261.3C240,256,274,224,309,202.7C342.9,181,377,171,411,186.7C445.7,203,480,245,514,256C548.6,267,583,245,617,245.3C651.4,245,686,267,720,282.7C754.3,299,789,309,823,304C857.1,299,891,277,926,250.7C960,224,994,192,1029,197.3C1062.9,203,1097,245,1131,224C1165.7,203,1200,117,1234,112C1268.6,107,1303,181,1337,192C1371.4,203,1406,149,1423,122.7L1440,96L1440,320L1422.9,320C1405.7,320,1371,320,1337,320C1302.9,320,1269,320,1234,320C1200,320,1166,320,1131,320C1097.1,320,1063,320,1029,320C994.3,320,960,320,926,320C891.4,320,857,320,823,320C788.6,320,754,320,720,320C685.7,320,651,320,617,320C582.9,320,549,320,514,320C480,320,446,320,411,320C377.1,320,343,320,309,320C274.3,320,240,320,206,320C171.4,320,137,320,103,320C68.6,320,34,320,17,320L0,320Z"></path></svg>